<?xml version="1.0" encoding="UTF-8" standalone="no"?>
<svg
   width="80"
   height="80"
   viewBox="0 0 80 80"
   fill="none"
   version="1.1"
   id="svg929"
   sodipodi:docname="desenho.svg"
   inkscape:version="1.1.1 (3bf5ae0d25, 2021-09-20)"
   xmlns:inkscape="http://www.inkscape.org/namespaces/inkscape"
   xmlns:sodipodi="http://sodipodi.sourceforge.net/DTD/sodipodi-0.dtd"
   xmlns="http://www.w3.org/2000/svg"
   xmlns:svg="http://www.w3.org/2000/svg">
  <sodipodi:namedview
     id="namedview931"
     pagecolor="#ffffff"
     bordercolor="#666666"
     borderopacity="1.0"
     inkscape:pageshadow="2"
     inkscape:pageopacity="0.0"
     inkscape:pagecheckerboard="0"
     showgrid="false"
     inkscape:zoom="10.8875"
     inkscape:cx="40"
     inkscape:cy="55.843858"
     inkscape:window-width="1920"
     inkscape:window-height="1051"
     inkscape:window-x="0"
     inkscape:window-y="0"
     inkscape:window-maximized="1"
     inkscape:current-layer="svg929" />
  <defs
     id="defs927">
    <clipPath
       id="clip0">
      <rect
         width="80"
         height="80"
         fill="white"
         id="rect924" />
    </clipPath>
  </defs>
  <g
     id="g68173"
     transform="matrix(1.4411724,0,0,1.4411724,-102.37749,-87.45097)">
    <path
       style="fill:#fafafa;fill-opacity:1;fill-rule:evenodd;stroke-width:0.264583"
       id="path31"
       sodipodi:type="arc"
       sodipodi:cx="98.582939"
       sodipodi:cy="97.736626"
       sodipodi:rx="15.612289"
       sodipodi:ry="16.787504"
       sodipodi:start="5.1996204"
       sodipodi:end="4.2073274"
       sodipodi:arc-type="slice"
       d="m 105.89232,82.902642 a 15.612289,16.787504 0 0 1 7.85855,18.810688 15.612289,16.787504 0 0 1 -15.028748,12.81013 15.612289,16.787504 0 0 1 -15.238762,-12.51997 15.612289,16.787504 0 0 1 7.545396,-18.958359 l 7.554183,14.691495 z" />
    <path
       style="fill:#fafafa;fill-opacity:1;stroke:#000000;stroke-width:3.15331;stroke-linecap:butt;stroke-linejoin:miter;stroke-miterlimit:4;stroke-dasharray:none;stroke-opacity:1"
       d="M 98.582939,97.736624 C 100.79056,85.931255 87.880397,69.810003 87.880397,69.810003 l -0.213722,0.229698"
       id="path66" />
    <path
       style="fill:#fafafa;fill-opacity:1;stroke:#000000;stroke-width:0.643062;stroke-linecap:butt;stroke-linejoin:miter;stroke-miterlimit:4;stroke-dasharray:none;stroke-opacity:1"
       d="m 94.753065,81.125569 c 0.637712,-4.243952 9.954365,-19.221882 9.954365,-19.221882 0,0 -14.144367,7.280703 -5.774691,10.074935 8.369681,2.794233 5.937751,-9.962225 5.937751,-9.962225"
       id="path1116" />
  </g>
</svg>
